HIERARCHY
ROOT Hips
{
	OFFSET 0.000000 0.000000 0.000000
	CHANNELS 6 Xposition Yposition Zposition Xrotation Yrotation Zrotation
	JOINT LeftUpLeg_virtual
	{
		OFFSET 0.000000 0.000000 0.000000
		CHANNELS 3 Xrotation Yrotation Zrotation
		JOINT LeftUpLeg
		{
			OFFSET 13.026900 -6.336304 -1.092800
			CHANNELS 3 Xrotation Yrotation Zrotation
			JOINT LeftLeg
			{
				OFFSET 0.524474 -46.096886 9.782700
				CHANNELS 3 Xrotation Yrotation Zrotation
				JOINT LeftFoot
				{
					OFFSET -0.524474 -53.427422 -12.948200
					CHANNELS 3 Xrotation Yrotation Zrotation
					JOINT LeftToeBase
					{
						OFFSET 0.192200 -14.009700 16.364100
						CHANNELS 3 Xrotation Yrotation Zrotation
						JOINT LeftToe_End
						{
							OFFSET -1.784700 -0.561700 9.474800
							CHANNELS 3 Xrotation Yrotation Zrotation
							End Site
							{
								OFFSET 0 0 0
							}
						}
					}
				}
			}
		}
	}
	JOINT RightUpLeg_virtual
	{
		OFFSET 0.000000 0.000000 0.000000
		CHANNELS 3 Xrotation Yrotation Zrotation
		JOINT RightUpLeg
		{
			OFFSET -12.883000 -6.336304 -1.092800
			CHANNELS 3 Xrotation Yrotation Zrotation
			JOINT RightLeg
			{
				OFFSET -0.524587 -46.096825 9.782800
				CHANNELS 3 Xrotation Yrotation Zrotation
				JOINT RightFoot
				{
					OFFSET 0.524587 -53.427383 -12.948300
					CHANNELS 3 Xrotation Yrotation Zrotation
					JOINT RightToeBase
					{
						OFFSET -0.192200 -14.009700 16.364100
						CHANNELS 3 Xrotation Yrotation Zrotation
						JOINT RightToe_End
						{
							OFFSET 1.784700 -0.561700 9.474800
							CHANNELS 3 Xrotation Yrotation Zrotation
							End Site
							{
								OFFSET 0 0 0
							}
						}
					}
				}
			}
		}
	}
	JOINT Spine_virtual
	{
		OFFSET 0.000000 0.000000 0.000000
		CHANNELS 3 Xrotation Yrotation Zrotation
		JOINT Spine
		{
			OFFSET 0.072000 7.257294 -0.789700
			CHANNELS 3 Xrotation Yrotation Zrotation
			JOINT Spine1
			{
				OFFSET 0.000000 12.508769 -0.658067
				CHANNELS 3 Xrotation Yrotation Zrotation
				JOINT Spine1_split
				{
					OFFSET 0.000000 12.508769 -0.658067
					CHANNELS 3 Xrotation Yrotation Zrotation
					JOINT Spine2
					{
						OFFSET 0.000000 12.508769 -0.658067
						CHANNELS 3 Xrotation Yrotation Zrotation
						JOINT Neck_virtual
						{
							OFFSET 0.000000 0.000000 0.000000
							CHANNELS 3 Xrotation Yrotation Zrotation
							JOINT Neck
							{
								OFFSET 0.000000 14.033295 7.520400
								CHANNELS 3 Xrotation Yrotation Zrotation
								JOINT Head
								{
									OFFSET 0.000000 8.198502 5.703100
									CHANNELS 3 Xrotation Yrotation Zrotation
									JOINT HeadTop_End
									{
										OFFSET 0.000000 17.760803 13.332701
										CHANNELS 3 Xrotation Yrotation Zrotation
										End Site
										{
											OFFSET 0 0 0
										}
									}
								}
							}
						}
						JOINT LeftShoulder_virtual
						{
							OFFSET 0.000000 0.000000 0.000000
							CHANNELS 3 Xrotation Yrotation Zrotation
							JOINT LeftShoulder
							{
								OFFSET 6.292450 5.785301 -0.669000
								CHANNELS 3 Xrotation Yrotation Zrotation
								JOINT LeftShoulder_split
								{
									OFFSET 6.292450 5.785301 -0.669000
									CHANNELS 3 Xrotation Yrotation Zrotation
									JOINT LeftArm
									{
										OFFSET 13.907140 -6.093903 1.965100
										CHANNELS 3 Xrotation Yrotation Zrotation
										JOINT LeftForeArm
										{
											OFFSET 34.140198 0.000000 0.000000
											CHANNELS 3 Xrotation Yrotation Zrotation
											JOINT LeftHand
											{
												OFFSET 40.960209 0.000000 0.000000
												CHANNELS 3 Xrotation Yrotation Zrotation
												End Site
												{
													OFFSET 0 0 0
												}
											}
										}
									}
								}
							}
						}
						JOINT RightShoulder_virtual
						{
							OFFSET 0.000000 0.000000 0.000000
							CHANNELS 3 Xrotation Yrotation Zrotation
							JOINT RightShoulder
							{
								OFFSET -6.292450 5.785301 -0.669000
								CHANNELS 3 Xrotation Yrotation Zrotation
								JOINT RightShoulder_split
								{
									OFFSET -6.292450 5.785301 -0.669000
									CHANNELS 3 Xrotation Yrotation Zrotation
									JOINT RightArm
									{
										OFFSET -13.907140 -6.093903 1.965100
										CHANNELS 3 Xrotation Yrotation Zrotation
										JOINT RightForeArm
										{
											OFFSET -34.140198 0.000000 0.000000
											CHANNELS 3 Xrotation Yrotation Zrotation
											JOINT RightHand
											{
												OFFSET -40.960209 0.000000 0.000000
												CHANNELS 3 Xrotation Yrotation Zrotation
												End Site
												{
													OFFSET 0 0 0
												}
											}
										}
									}
								}
							}
						}
					}
				}
			}
		}
	}
}
MOTION
Frames: 7
Frame Time: 0.03333333
-1.359796 106.078133 0.548420 0.000000 0.000000 0.000000 -3.725029 -46.703351 -2.075905 -26.330977 3.956370 13.383430 30.721856 -11.753114 -0.584519 -3.973377 0.586231 -7.980831 -0.936992 -1.933838 0.306909 0.000000 0.000000 0.000000 -4.668220 -45.876489 -2.201347 -2.739991 -12.032811 -17.796884 24.944182 -8.437929 0.370800 -16.734300 -3.661644 18.217457 -2.524823 0.072911 0.721703 0.000000 0.000000 0.000000 -2.530698 -43.857772 -1.400709 5.951867 5.672270 -1.033908 12.418976 9.403188 -3.088168 1.084950 -1.373959 0.689738 0.000000 0.000000 0.000000 12.418766 9.168051 -3.253827 -3.958265 -2.039783 0.423915 -4.852470 21.816908 -1.197940 0.000000 0.000000 0.000000 12.238960 9.361512 -3.086160 1.915075 0.011992 -7.086425 -2.805780 -3.233532 -0.673579 -14.919986 3.897513 -61.378587 8.774706 -46.659932 5.330069 0.000000 0.000000 0.000000 12.243189 9.335898 -3.256949 1.407728 9.807184 11.594777 -1.875986 3.190382 -0.528744 3.539406 -21.502499 61.394084 -5.964648 41.727255 7.972723 0.000000 0.000000 0.000000 
-1.358340 106.071190 0.615009 0.000000 0.000000 0.000000 -3.682022 -46.673377 -2.053141 -26.342815 3.907941 13.371133 30.667809 -11.742988 -0.596576 -4.017321 0.594066 -7.950157 -0.901073 -1.938305 0.318355 0.000000 0.000000 0.000000 -4.586671 -45.847310 -2.172746 -2.736062 -11.937327 -17.808180 25.023421 -8.380433 0.344126 -16.738868 -3.677633 18.253885 -2.523945 0.062622 0.740305 0.000000 0.000000 0.000000 -2.442510 -43.854070 -1.372552 5.939238 5.672229 -1.026154 12.383512 9.374955 -3.102790 1.137781 -1.486670 0.686827 0.000000 0.000000 0.000000 12.414569 9.141473 -3.244896 -3.924617 -1.914521 0.349345 -4.847642 21.950944 -1.133077 0.000000 0.000000 0.000000 12.212307 9.331567 -3.095630 1.926641 -0.006613 -7.144828 -2.757337 -3.205747 -0.551057 -14.952037 3.818978 -61.359435 8.826896 -46.797850 5.363407 0.000000 0.000000 0.000000 12.211567 9.306450 -3.235706 1.428033 9.786472 11.587769 -1.977806 3.268703 -0.473488 3.565104 -21.468854 61.408687 -5.924360 41.608177 7.938246 0.000000 0.000000 0.000000 
-1.342377 106.073944 0.661835 0.000000 0.000000 0.000000 -3.618510 -46.704837 -2.015417 -26.339438 3.868556 13.342481 30.592458 -11.701590 -0.583488 -4.089234 0.633878 -7.950089 -0.863976 -1.942114 0.321463 0.000000 0.000000 0.000000 -4.514426 -45.847611 -2.138811 -2.781537 -11.868086 -17.824550 25.131959 -8.303913 0.290004 -16.730279 -3.697363 18.302443 -2.535989 0.046790 0.747782 0.000000 0.000000 0.000000 -2.347181 -43.857826 -1.342172 5.952176 5.655143 -1.019094 12.352527 9.324625 -3.109758 1.144811 -1.540136 0.710989 0.000000 0.000000 0.000000 12.390834 9.091937 -3.241940 -3.873332 -1.763945 0.277974 -4.755957 22.301307 -1.117723 0.000000 0.000000 0.000000 12.190788 9.272085 -3.103261 1.939713 -0.032685 -7.182455 -2.721403 -3.164137 -0.448809 -15.006078 3.784711 -61.371599 8.881194 -46.952336 5.404437 0.000000 0.000000 0.000000 12.187620 9.255740 -3.212096 1.439610 9.760699 11.592743 -2.028855 3.303571 -0.428626 3.531818 -21.358365 61.406174 -5.848382 41.404176 7.861901 0.000000 0.000000 0.000000 
-1.327025 106.075180 0.671082 0.000000 0.000000 0.000000 -3.540553 -46.779313 -1.960279 -26.325479 3.842581 13.298711 30.517524 -11.638928 -0.547394 -4.169112 0.693841 -7.984312 -0.840013 -1.944285 0.317552 0.000000 0.000000 0.000000 -4.453883 -45.870874 -2.095086 -2.890602 -11.839406 -17.846721 25.252874 -8.210196 0.209711 -16.701887 -3.711454 18.385858 -2.546716 0.027512 0.744449 0.000000 0.000000 0.000000 -2.262415 -43.866566 -1.309772 5.985543 5.621060 -1.015695 12.323700 9.249313 -3.107139 1.093643 -1.539727 0.753927 0.000000 0.000000 0.000000 12.355092 9.018229 -3.241893 -3.823007 -1.578488 0.205620 -4.609903 22.901296 -1.174774 0.000000 0.000000 0.000000 12.170866 9.181865 -3.104537 1.953028 -0.065952 -7.203425 -2.713216 -3.094101 -0.376875 -15.049789 3.815244 -61.407622 8.939662 -47.142177 5.458612 0.000000 0.000000 0.000000 12.162531 9.181065 -3.184765 1.444618 9.726763 11.588511 -2.047395 3.297969 -0.410875 3.454067 -21.207263 61.378341 -5.757629 41.152207 7.762096 0.000000 0.000000 0.000000 
-1.306991 106.072670 0.650959 0.000000 0.000000 0.000000 -3.463968 -46.875124 -1.894686 -26.313575 3.843522 13.244654 30.460820 -11.569713 -0.499953 -4.227370 0.754611 -8.049084 -0.823578 -1.946529 0.309968 0.000000 0.000000 0.000000 -4.413589 -45.908393 -2.044118 -3.031560 -11.867377 -17.855767 25.349904 -8.110262 0.102549 -16.667704 -3.713430 18.484992 -2.571900 0.007656 0.731233 0.000000 0.000000 0.000000 -2.202842 -43.883791 -1.272289 6.031546 5.573464 -1.014841 12.299670 9.146796 -3.099241 1.041958 -1.502905 0.777796 0.000000 0.000000 0.000000 12.313515 8.916584 -3.242551 -3.799922 -1.343777 0.122223 -4.458023 23.772800 -1.324615 0.000000 0.000000 0.000000 12.153931 9.056570 -3.100058 1.965483 -0.102194 -7.214495 -2.705865 -3.022994 -0.359813 -15.071883 3.886169 -61.454975 9.021612 -47.385250 5.535764 0.000000 0.000000 0.000000 12.132234 9.080016 -3.155589 1.443465 9.689698 11.564899 -2.032002 3.265478 -0.409818 3.353194 -21.052421 61.337442 -5.681844 40.915743 7.664948 0.000000 0.000000 0.000000 
-1.283610 106.067978 0.631165 0.000000 0.000000 0.000000 -3.394147 -46.962356 -1.818686 -26.314158 3.877760 13.181267 30.428264 -11.505361 -0.453591 -4.254979 0.793065 -8.131164 -0.808076 -1.951005 0.304621 0.000000 0.000000 0.000000 -4.386757 -45.943869 -1.983122 -3.164881 -11.954302 -17.833293 25.395463 -8.028224 -0.031872 -16.646506 -3.708723 18.567408 -2.626670 -0.010394 0.715786 0.000000 0.000000 0.000000 -2.177206 -43.911440 -1.223285 6.076444 5.516246 -1.014497 12.277419 9.015065 -3.092242 0.992078 -1.439742 0.777238 0.000000 0.000000 0.000000 12.269578 8.782213 -3.244802 -3.832018 -1.043503 0.014094 -4.328818 24.940557 -1.584494 0.000000 0.000000 0.000000 12.138967 8.897197 -3.093688 1.978053 -0.135840 -7.225138 -2.657317 -3.012034 -0.364249 -15.066265 3.961098 -61.503859 9.135727 -47.673470 5.636176 0.000000 0.000000 0.000000 12.093448 8.948449 -3.125836 1.436660 9.657594 11.510736 -1.970849 3.217812 -0.412526 3.237431 -20.921196 61.293762 -5.637077 40.742642 7.589579 0.000000 0.000000 0.000000 
-1.260115 106.063690 0.633083 0.000000 0.000000 0.000000 -3.333316 -47.023373 -1.722795 -26.322024 3.959326 13.110682 30.408692 -11.447585 -0.417717 -4.280319 0.801066 -8.199771 -0.777984 -1.960119 0.304989 0.000000 0.000000 0.000000 -4.373739 -45.969707 -1.912284 -3.266411 -12.092279 -17.773913 25.388476 -7.994882 -0.187787 -16.639370 -3.695823 18.599379 -2.701615 -0.024791 0.707513 0.000000 0.000000 0.000000 -2.184582 -43.953944 -1.159678 6.121870 5.457471 -1.016563 12.254654 8.856966 -3.092292 0.961410 -1.378883 0.784746 0.000000 0.000000 0.000000 12.224002 8.618027 -3.250265 -3.942705 -0.665958 -0.120861 -4.237238 26.401041 -1.956535 0.000000 0.000000 0.000000 12.128669 8.708227 -3.087939 1.990625 -0.164226 -7.232285 -2.584726 -3.013470 -0.377383 -15.040451 3.988645 -61.540537 9.264000 -47.952702 5.734633 0.000000 0.000000 0.000000 12.046315 8.786825 -3.100398 1.425443 9.639595 11.429200 -1.910158 3.152447 -0.386786 3.115568 -20.819011 61.257091 -5.616846 40.626013 7.535926 0.000000 0.000000 0.000000 
